<?xml version="1.0" encoding="UTF-8" standalone="no"?>
<svg
   xmlns:dc="http://purl.org/dc/elements/1.1/"
   xmlns:cc="http://creativecommons.org/ns#"
   xmlns:rdf="http://www.w3.org/1999/02/22-rdf-syntax-ns#"
   xmlns:svg="http://www.w3.org/2000/svg"
   xmlns="http://www.w3.org/2000/svg"
   viewBox="0 0 666.66669 666.66669"
   height="666.66669"
   width="666.66669"
   xml:space="preserve"
   id="svg2"
   version="1.1"><metadata
     id="metadata8"><rdf:RDF><cc:Work
         rdf:about=""><dc:format>image/svg+xml</dc:format><dc:type
           rdf:resource="http://purl.org/dc/dcmitype/StillImage" /></cc:Work></rdf:RDF></metadata><defs
     id="defs6" /><g
     transform="matrix(1.3333333,0,0,-1.3333333,0,666.66667)"
     id="g10"><g
       transform="scale(0.1)"
       id="g12"><path
         id="path14"
         style="fill:#ffffff;fill-opacity:1;fill-rule:nonzero;stroke:none"
         d="M 0,0 H 5000 V 5000 H 0 Z" /><path
         id="path16"
         style="fill:#45bfa2;fill-opacity:1;fill-rule:nonzero;stroke:none"
         d="m 957.18,2828.4 c 0,0 -102.403,-731.43 330.33,-1243.88 432.73,-512.43 1882.76,-632.282 2420.39,23.04 534.27,651.23 424,1366 73.17,1854.17 C 3432.28,3947.07 2512.7,4209.62 1825.75,3893.44 1047.92,3535.43 957.18,2828.4 957.18,2828.4" /><path
         id="path18"
         style="fill:#4dc2a7;fill-opacity:1;fill-rule:nonzero;stroke:none"
         d="m 4027.89,2943.76 c -322.83,-191.2 -863.35,-295.16 -1843.02,-291.79 -517.06,1.8 -917.16,-92.94 -1226.753,-235.51 26.539,-249.64 107.773,-569.49 329.393,-831.94 432.73,-512.43 1882.76,-632.282 2420.39,23.04 366.49,446.72 429.67,923.34 319.99,1336.2" /><path
         id="path20"
         style="fill:#5ac7af;fill-opacity:1;fill-rule:nonzero;stroke:none"
         d="m 2963.9,1851.41 c -555.95,-247.64 -1007.6,-405.52 -1382.07,-489.57 598.92,-308.07 1678.54,-299.79 2126.07,245.72 143.33,174.72 240.1,354 298.44,532.25 -316.75,-30.61 -663.97,-119.83 -1042.44,-288.4" /><path
         id="path22"
         style="fill:#1b2233;fill-opacity:1;fill-rule:nonzero;stroke:none"
         d="m 2463.09,3116.87 c -2.03,0 -4.09,0.13 -6.16,0.38 -27.59,3.38 -47.23,28.5 -43.85,56.11 33.52,273.5 -62.35,336.06 -183.72,415.27 -68.84,44.93 -146.87,95.87 -204.96,188.03 -172.33,273.41 238.73,623.36 256.3,638.13 21.31,17.88 53.07,15.12 70.96,-6.18 17.89,-21.3 15.13,-53.07 -6.17,-70.97 -101,-85 -340.16,-341.81 -235.87,-507.28 46.36,-73.53 108.74,-114.25 174.79,-157.37 132.65,-86.57 269.81,-176.1 228.66,-511.88 -3.13,-25.54 -24.88,-44.26 -49.98,-44.24" /><path
         id="path24"
         style="fill:#1b2233;fill-opacity:1;fill-rule:nonzero;stroke:none"
         d="m 1530.74,3012.88 c 0,0 12.64,117.2 65.09,147.63 52.46,30.4 259.85,65.76 304.76,28.1 44.89,-37.66 83.37,-125.65 83.37,-125.65 l -453.22,-50.08" /><path
         id="path26"
         style="fill:#151925;fill-opacity:1;fill-rule:nonzero;stroke:none"
         d="m 1888.59,3052.42 95.37,10.54 c 0,0 -38.48,87.99 -83.37,125.65 -13.23,11.09 -40.61,15.82 -73.92,16.23 31.99,-47.74 50.85,-104.34 61.92,-152.42" /><path
         id="path28"
         style="fill:#2f3a51;fill-opacity:1;fill-rule:nonzero;stroke:none"
         d="m 1487.14,3000.16 c 0,0 17.83,56.72 51.91,76.46 72.21,41.83 341.53,79.1 392.06,80.5 46.21,1.28 70.33,-51.76 70.33,-51.76" /><path
         id="path30"
         style="fill:#242d42;fill-opacity:1;fill-rule:nonzero;stroke:none"
         d="m 1487.14,3000.16 c 0,0 17.83,56.72 51.91,76.46 72.21,41.83 341.53,79.1 392.06,80.5 46.21,1.28 70.33,-51.76 70.33,-51.76" /><path
         id="path32"
         style="fill:#1b2233;fill-opacity:1;fill-rule:nonzero;stroke:none"
         d="m 3468.8,3011.08 c 0,0 -12.41,117.21 -64.81,147.73 -52.39,30.52 -259.73,66.25 -304.69,28.68 -44.98,-37.58 -83.6,-125.49 -83.6,-125.49 l 453.1,-50.92" /><path
         id="path34"
         style="fill:#151925;fill-opacity:1;fill-rule:nonzero;stroke:none"
         d="M 3111.04,3051.28 3015.7,3062 c 0,0 38.62,87.91 83.6,125.49 13.24,11.06 40.62,15.74 73.93,16.09 -32.07,-47.68 -51.03,-104.24 -62.19,-152.3" /><path
         id="path36"
         style="fill:#2f3a51;fill-opacity:1;fill-rule:nonzero;stroke:none"
         d="m 3512.4,2998.25 c 0,0 -17.74,56.78 -51.78,76.59 -72.14,41.95 -341.39,79.73 -391.91,81.22 -46.21,1.37 -70.43,-51.63 -70.43,-51.63" /><path
         id="path38"
         style="fill:#242d42;fill-opacity:1;fill-rule:nonzero;stroke:none"
         d="m 3512.4,2998.25 c 0,0 -17.74,56.78 -51.78,76.59 -72.14,41.95 -341.39,79.73 -391.91,81.22 -46.21,1.37 -70.43,-51.63 -70.43,-51.63" /><path
         id="path40"
         style="fill:#2f3a51;fill-opacity:1;fill-rule:nonzero;stroke:none"
         d="m 2603.49,2962.49 c -0.01,-13.91 -11.3,-25.18 -25.21,-25.16 l -214.07,0.2 c -13.9,0 -25.17,11.28 -25.15,25.2 l 25.4,242.37 c 0.01,13.92 11.31,25.18 25.21,25.17 l 163.7,-0.15 c 13.91,-0.02 25.17,-11.3 25.16,-25.22 l 24.96,-242.41" /><path
         id="path42"
         style="fill:#242d42;fill-opacity:1;fill-rule:nonzero;stroke:none"
         d="m 2472.85,3177.71 c -33.48,-0.86 -72.72,2.18 -111.93,-6.33 l -21.86,-208.65 c -0.02,-13.92 11.25,-25.2 25.15,-25.2 l 214.07,-0.2 c 13.91,-0.02 25.2,11.25 25.21,25.16 l -22.08,214.5 c -34.5,0.46 -77.63,0.31 -108.56,0.72" /><path
         id="path44"
         style="fill:#2f3a51;fill-opacity:1;fill-rule:nonzero;stroke:none"
         d="m 3967.3,1840.51 c -133.78,545.77 -330.56,1087.43 -427.05,1150.48 -96.46,63.05 -395.86,151.47 -1067.43,160.5 -621.22,-16.21 -948.7,-95.65 -1045.29,-158.54 -96.59,-62.84 -294.39,-604.14 -429.202,-1149.68 -134.82,-545.55 87.462,-726.23 330.932,-705.47 243.45,20.76 536.25,788.52 596.85,889.31 23.11,38.39 475.47,44.73 551.59,45.53 74.5,-0.87 539.05,-7.96 562.16,-46.6 60.43,-100.89 351.78,-869.18 595.2,-890.39 243.44,-21.23 466.04,159.08 332.24,704.86" /><path
         id="path46"
         style="fill:#2f3a51;fill-opacity:1;fill-rule:nonzero;stroke:none"
         d="m 3072.08,2130.98 c -0.1,-118.23 -96.03,-213.98 -214.27,-213.86 -118.22,0.12 -213.97,96.03 -213.85,214.25 0.11,118.24 96.03,213.99 214.26,213.86 118.23,-0.08 213.98,-96.04 213.86,-214.25" /><path
         id="path48"
         style="fill:#242d42;fill-opacity:1;fill-rule:nonzero;stroke:none"
         d="m 3072.08,2130.98 c -0.1,-118.23 -96.03,-213.98 -214.27,-213.86 -118.22,0.12 -213.97,96.03 -213.85,214.25 0.11,118.24 96.03,213.99 214.26,213.86 118.23,-0.08 213.98,-96.04 213.86,-214.25" /><path
         id="path50"
         style="fill:#1b2233;fill-opacity:1;fill-rule:nonzero;stroke:none"
         d="m 3024.88,2131.04 c -0.09,-92.76 -75.33,-167.85 -168.06,-167.75 -92.72,0.07 -167.82,75.31 -167.73,168.06 0.08,92.71 75.31,167.81 168.04,167.73 92.73,-0.09 167.84,-75.34 167.75,-168.04" /><path
         id="path52"
         style="fill:#151925;fill-opacity:1;fill-rule:nonzero;stroke:none"
         d="m 2986.95,2237.43 c 8.23,-19.82 12.81,-41.59 12.79,-64.4 -0.09,-92.77 -75.34,-167.83 -168.07,-167.73 -52.33,0.04 -99.05,24.07 -129.8,61.63 25.22,-60.78 85.06,-103.58 154.95,-103.64 92.73,-0.1 167.97,74.99 168.06,167.75 0.04,40.36 -14.21,77.43 -37.93,106.39" /><path
         id="path54"
         style="fill:#2f3a51;fill-opacity:1;fill-rule:nonzero;stroke:none"
         d="m 2103.83,2630.91 c -0.17,-184.26 -149.72,-333.55 -334.01,-333.36 -184.29,0.16 -333.55,149.71 -333.38,333.99 0.17,184.29 149.71,333.56 334.01,333.39 184.29,-0.17 333.55,-149.7 333.38,-334.02" /><path
         id="path56"
         style="fill:#242d42;fill-opacity:1;fill-rule:nonzero;stroke:none"
         d="m 2103.83,2630.91 c -0.17,-184.26 -149.72,-333.55 -334.01,-333.36 -184.29,0.16 -333.55,149.71 -333.38,333.99 0.17,184.29 149.71,333.56 334.01,333.39 184.29,-0.17 333.55,-149.7 333.38,-334.02" /><path
         id="path58"
         style="fill:#d5dbdb;fill-opacity:1;fill-rule:nonzero;stroke:none"
         d="m 2061.05,2630.96 c -0.14,-160.65 -130.52,-290.78 -291.2,-290.66 -160.66,0.15 -290.79,130.54 -290.64,291.19 0.16,160.68 130.53,290.81 291.2,290.66 160.66,-0.14 290.79,-130.52 290.64,-291.19" /><path
         id="path60"
         style="fill:#c1c5c6;fill-opacity:1;fill-rule:nonzero;stroke:none"
         d="m 2020.45,2779.45 c 14.01,-34.13 21.8,-71.5 21.76,-110.71 -0.16,-160.67 -130.53,-290.8 -291.19,-290.62 -106.44,0.08 -199.42,57.35 -250.05,142.68 43.45,-105.79 147.42,-180.38 268.88,-180.5 160.68,-0.12 291.06,130.01 291.2,290.66 0.05,54.24 -14.79,105.01 -40.6,148.49" /><path
         id="path62"
         style="fill:#2f3a51;fill-opacity:1;fill-rule:nonzero;stroke:none"
         d="m 1683.17,2695.96 -103.77,0.09 c -16.9,0.02 -30.62,-13.67 -30.65,-30.59 l -0.06,-68.04 c -0.01,-16.9 13.68,-30.64 30.61,-30.63 l 103.76,-0.12 68.33,64.97 -68.22,64.32" /><path
         id="path64"
         style="fill:#2f3a51;fill-opacity:1;fill-rule:nonzero;stroke:none"
         d="m 1858.14,2695.79 103.76,-0.1 c 16.91,-0.01 30.61,-13.74 30.59,-30.64 l -0.06,-68.05 c -0.01,-16.9 -13.74,-30.6 -30.64,-30.6 l -103.77,0.1 -68.22,65.09 68.34,64.2" /><path
         id="path66"
         style="fill:#242d42;fill-opacity:1;fill-rule:nonzero;stroke:none"
         d="m 1683.08,2596.05 -103.76,0.1 c -16.91,0.03 -30.62,13.71 -30.6,30.65 l -0.03,-29.38 c -0.01,-16.9 13.68,-30.64 30.61,-30.63 l 103.76,-0.12 68.33,64.97 -15.5,14.6 -52.81,-50.19" /><path
         id="path68"
         style="fill:#242d42;fill-opacity:1;fill-rule:nonzero;stroke:none"
         d="m 1961.82,2595.79 -103.77,0.09 -52.71,50.32 -15.54,-14.61 68.22,-65.09 103.77,-0.1 c 16.9,0 30.63,13.7 30.64,30.6 l 0.02,29.37 c 0,-16.91 -13.73,-30.6 -30.63,-30.58" /><path
         id="path70"
         style="fill:#2f3a51;fill-opacity:1;fill-rule:nonzero;stroke:none"
         d="m 1835.32,2718.66 0.1,103.76 c 0.02,16.91 -13.68,30.64 -30.6,30.64 l -68.04,0.06 c -16.91,0.03 -30.64,-13.68 -30.65,-30.58 l -0.09,-103.77 64.96,-68.33 64.32,68.22" /><path
         id="path72"
         style="fill:#2f3a51;fill-opacity:1;fill-rule:nonzero;stroke:none"
         d="m 1835.17,2543.7 -0.11,-103.79 c -0.01,-16.89 -13.73,-30.58 -30.66,-30.56 l -68.03,0.04 c -16.92,0 -30.62,13.73 -30.6,30.66 l 0.1,103.76 65.09,68.22 64.21,-68.33" /><path
         id="path74"
         style="fill:#242d42;fill-opacity:1;fill-rule:nonzero;stroke:none"
         d="m 1804.82,2853.06 -25.18,0.02 c 16.9,-0.02 30.61,-13.73 30.59,-30.64 l -0.09,-103.75 -51.79,-54.93 12.65,-13.32 64.32,68.22 0.1,103.76 c 0.02,16.91 -13.68,30.64 -30.6,30.64" /><path
         id="path76"
         style="fill:#242d42;fill-opacity:1;fill-rule:nonzero;stroke:none"
         d="m 1770.96,2612.03 -12.68,-13.29 51.69,-55.01 -0.09,-103.78 c -0.02,-16.91 -13.74,-30.61 -30.66,-30.59 l 25.18,-0.01 c 16.93,-0.02 30.65,13.67 30.66,30.56 l 0.11,103.79 -64.21,68.33" /><path
         id="path78"
         style="fill:#242d42;fill-opacity:1;fill-rule:nonzero;stroke:none"
         d="m 1373.98,2927.77 c -104.8,-171.29 -262.43,-626.31 -375.652,-1084.5 -134.82,-545.55 87.462,-726.23 330.932,-705.47 243.45,20.76 536.25,788.52 596.85,889.31 -617.52,178.97 -617.35,629.54 -552.13,900.66" /><path
         id="path80"
         style="fill:#242d42;fill-opacity:1;fill-rule:nonzero;stroke:none"
         d="m 3967.3,1840.51 c -118.97,485.3 -287.68,967.03 -391.45,1112.23 74.59,-306.06 32.2,-746.74 -535.33,-927.83 61.77,-105.09 351.95,-868.1 594.54,-889.26 243.44,-21.23 466.04,159.08 332.24,704.86" /><path
         id="path82"
         style="fill:#1c2436;fill-opacity:1;fill-rule:nonzero;stroke:none"
         d="m 1763.57,1683.87 c 78.73,160.28 138.67,303.51 162.54,343.24 -220.91,64.01 -362.75,162.81 -450.86,275.7 l -3.57,-2.46 c 0,0 60.58,-453.29 291.89,-616.48" /><path
         id="path84"
         style="fill:#1c2436;fill-opacity:1;fill-rule:nonzero;stroke:none"
         d="m 3040.52,2024.91 c 23.22,-39.46 78.65,-171.82 151.7,-322.79 193.91,162.56 257.54,530.94 266.44,588.65 -87.54,-108.89 -221.2,-203.02 -418.14,-265.86" /><path
         id="path86"
         style="fill:#2f3a51;fill-opacity:1;fill-rule:nonzero;stroke:none"
         d="m 2550.85,2773.67 -155.3,0.14 c -27.77,0.01 -50.37,-21.44 -50.42,-47.87 l -0.02,-32.21 c -0.03,-26.42 22.55,-47.91 50.32,-47.94 l 155.29,-0.16 c 27.79,-0.02 50.39,21.45 50.42,47.86 l 0.03,32.21 c 0.02,26.42 -22.55,47.92 -50.32,47.97" /><path
         id="path88"
         style="fill:#2f3a51;fill-opacity:1;fill-rule:nonzero;stroke:none"
         d="m 2550.67,2580.58 -155.3,0.12 c -27.77,0.03 -50.39,-21.42 -50.41,-47.85 l -0.03,-32.17 c -0.03,-26.43 22.55,-47.96 50.31,-47.98 l 155.31,-0.16 c 27.78,0 50.39,21.45 50.42,47.88 l 0.03,32.2 c 0.02,26.41 -22.56,47.92 -50.33,47.96" /><path
         id="path90"
         style="fill:#2f3a51;fill-opacity:1;fill-rule:nonzero;stroke:none"
         d="m 2550.85,2773.67 -155.3,0.14 c -27.77,0.01 -50.37,-21.44 -50.42,-47.87 l -0.02,-32.21 c -0.03,-26.42 22.55,-47.91 50.32,-47.94 l 155.29,-0.16 c 27.79,-0.02 50.39,21.45 50.42,47.86 l 0.03,32.21 c 0.02,26.42 -22.55,47.92 -50.32,47.97" /><path
         id="path92"
         style="fill:#2f3a51;fill-opacity:1;fill-rule:nonzero;stroke:none"
         d="m 2550.67,2580.58 -155.3,0.12 c -27.77,0.03 -50.39,-21.42 -50.41,-47.85 l -0.03,-32.17 c -0.03,-26.43 22.55,-47.96 50.31,-47.98 l 155.31,-0.16 c 27.78,0 50.39,21.45 50.42,47.88 l 0.03,32.2 c 0.02,26.41 -22.56,47.92 -50.33,47.96" /><path
         id="path94"
         style="fill:#d5dbdb;fill-opacity:1;fill-rule:nonzero;stroke:none"
         d="m 2575.97,2693.53 c -0.03,-12.56 -11.31,-22.72 -25.21,-22.7 l -155.31,0.13 c -13.91,0.01 -25.17,10.21 -25.15,22.76 l 0.01,32.19 c 0.03,12.55 11.31,22.72 25.22,22.7 l 155.29,-0.14 c 13.92,-0.01 25.18,-10.21 25.17,-22.75 l -0.02,-32.19" /><path
         id="path96"
         style="fill:#d5dbdb;fill-opacity:1;fill-rule:nonzero;stroke:none"
         d="m 2575.78,2500.44 c -0.01,-12.54 -11.31,-22.72 -25.2,-22.7 l -155.31,0.13 c -13.9,0.02 -25.18,10.22 -25.15,22.75 l 0.02,32.21 c 0.01,12.56 11.3,22.71 25.2,22.69 l 155.3,-0.13 c 13.92,0 25.18,-10.19 25.16,-22.75 l -0.02,-32.2" /><path
         id="path98"
         style="fill:#c1c5c6;fill-opacity:1;fill-rule:nonzero;stroke:none"
         d="m 2550.77,2692.86 -155.29,0.13 c -13.92,0.02 -25.18,10.2 -25.17,22.75 l -0.01,-22.02 c -0.02,-12.55 11.24,-22.75 25.15,-22.76 l 155.31,-0.13 c 13.9,-0.02 25.18,10.14 25.21,22.7 l 0.01,22.03 c -0.01,-12.54 -11.29,-22.7 -25.21,-22.7" /><path
         id="path100"
         style="fill:#c1c5c6;fill-opacity:1;fill-rule:nonzero;stroke:none"
         d="m 2550.6,2499.77 -155.31,0.16 c -13.9,-0.01 -25.17,10.19 -25.16,22.75 l -0.01,-22.06 c -0.03,-12.53 11.25,-22.73 25.15,-22.75 l 155.31,-0.13 c 13.89,-0.02 25.19,10.16 25.2,22.7 l 0.03,22.03 c -0.03,-12.55 -11.31,-22.72 -25.21,-22.7" /><path
         id="path102"
         style="fill:#242d42;fill-opacity:1;fill-rule:nonzero;stroke:none"
         d="m 2109.62,3830.36 c -104.29,165.47 134.87,422.28 235.87,507.28 21.3,17.9 24.06,49.67 6.17,70.97 -17.89,21.3 -49.65,24.06 -70.96,6.18 -11.83,-9.94 -202,-171.81 -272.43,-359.97 -1.97,-89.67 43.08,-177.84 101.35,-224.46 1.33,0.93 0,0 0,0" /><path
         id="path104"
         style="fill:#2f3a51;fill-opacity:1;fill-rule:nonzero;stroke:none"
         d="m 3348.37,2831.53 c -0.08,-82.27 -66.85,-148.92 -149.1,-148.86 -82.3,0.08 -148.93,66.87 -148.86,149.12 0.09,82.3 66.85,148.94 149.13,148.86 82.26,-0.07 148.9,-66.84 148.83,-149.12" /><path
         id="path106"
         style="fill:#242d42;fill-opacity:1;fill-rule:nonzero;stroke:none"
         d="m 3348.37,2831.53 c -0.08,-82.27 -66.85,-148.92 -149.1,-148.86 -82.3,0.08 -148.93,66.87 -148.86,149.12 0.09,82.3 66.85,148.94 149.13,148.86 82.26,-0.07 148.9,-66.84 148.83,-149.12" /><path
         id="path108"
         style="fill:#f5bc2c;fill-opacity:1;fill-rule:nonzero;stroke:none"
         d="m 3311.22,2831.55 c -0.08,-61.75 -50.18,-111.76 -111.92,-111.7 -61.76,0.06 -111.76,50.17 -111.71,111.9 0.06,61.75 50.15,111.79 111.91,111.74 61.75,-0.06 111.78,-50.19 111.72,-111.94" /><path
         id="path110"
         style="fill:#c89b2a;fill-opacity:1;fill-rule:nonzero;stroke:none"
         d="m 3287.76,2900 c 4.71,-12.4 7.4,-25.8 7.39,-39.85 -0.07,-61.74 -50.15,-111.76 -111.92,-111.71 -35.93,0.04 -67.82,17.11 -88.24,43.48 16.03,-42.07 56.61,-72.02 104.31,-72.07 61.74,-0.06 111.84,49.95 111.92,111.7 0.01,25.8 -8.79,49.5 -23.46,68.45" /><path
         id="path112"
         style="fill:#2f3a51;fill-opacity:1;fill-rule:nonzero;stroke:none"
         d="m 3347.98,2419.43 c -0.06,-82.25 -66.85,-148.93 -149.1,-148.85 -82.28,0.09 -148.93,66.88 -148.84,149.14 0.07,82.28 66.83,148.92 149.12,148.84 82.27,-0.07 148.9,-66.84 148.82,-149.13" /><path
         id="path114"
         style="fill:#242d42;fill-opacity:1;fill-rule:nonzero;stroke:none"
         d="m 3347.98,2419.43 c -0.06,-82.25 -66.85,-148.93 -149.1,-148.85 -82.28,0.09 -148.93,66.88 -148.84,149.14 0.07,82.28 66.83,148.92 149.12,148.84 82.27,-0.07 148.9,-66.84 148.82,-149.13" /><path
         id="path116"
         style="fill:#45bfa2;fill-opacity:1;fill-rule:nonzero;stroke:none"
         d="m 3310.81,2419.46 c -0.06,-61.74 -50.16,-111.77 -111.89,-111.69 -61.76,0.04 -111.78,50.19 -111.72,111.92 0.06,61.73 50.16,111.76 111.92,111.71 61.74,-0.05 111.77,-50.18 111.69,-111.94" /><path
         id="path118"
         style="fill:#3ea38c;fill-opacity:1;fill-rule:nonzero;stroke:none"
         d="m 3287.38,2487.92 c 4.7,-12.4 7.4,-25.78 7.39,-39.85 -0.06,-61.73 -50.16,-111.75 -111.91,-111.71 -35.94,0.03 -67.82,17.11 -88.25,43.47 16.02,-42.06 56.6,-72.03 104.31,-72.06 61.73,-0.08 111.83,49.95 111.89,111.69 0.03,25.82 -8.77,49.52 -23.43,68.46" /><path
         id="path120"
         style="fill:#2f3a51;fill-opacity:1;fill-rule:nonzero;stroke:none"
         d="m 3126.66,2625.69 c -0.09,-82.27 -66.87,-148.92 -149.12,-148.84 -82.29,0.06 -148.93,66.85 -148.85,149.11 0.08,82.29 66.85,148.91 149.12,148.84 82.26,-0.07 148.91,-66.84 148.85,-149.11" /><path
         id="path122"
         style="fill:#242d42;fill-opacity:1;fill-rule:nonzero;stroke:none"
         d="m 3126.66,2625.69 c -0.09,-82.27 -66.87,-148.92 -149.12,-148.84 -82.29,0.06 -148.93,66.85 -148.85,149.11 0.08,82.29 66.85,148.91 149.12,148.84 82.26,-0.07 148.91,-66.84 148.85,-149.11" /><path
         id="path124"
         style="fill:#844dac;fill-opacity:1;fill-rule:nonzero;stroke:none"
         d="m 3089.48,2625.72 c -0.06,-61.74 -50.16,-111.78 -111.91,-111.72 -61.75,0.07 -111.77,50.17 -111.7,111.94 0.06,61.75 50.16,111.75 111.9,111.7 61.75,-0.07 111.76,-50.16 111.71,-111.92" /><path
         id="path126"
         style="fill:#684098;fill-opacity:1;fill-rule:nonzero;stroke:none"
         d="m 3066.03,2694.18 c 4.71,-12.39 7.42,-25.79 7.41,-39.85 -0.06,-61.75 -50.17,-111.76 -111.92,-111.71 -35.93,0.02 -67.82,17.08 -88.25,43.47 16.03,-42.08 56.6,-72.03 104.3,-72.09 61.75,-0.06 111.85,49.98 111.91,111.72 0.02,25.79 -8.78,49.51 -23.45,68.46" /><path
         id="path128"
         style="fill:#2f3a51;fill-opacity:1;fill-rule:nonzero;stroke:none"
         d="m 3569.72,2625.28 c -0.08,-82.28 -66.87,-148.92 -149.12,-148.84 -82.28,0.07 -148.91,66.84 -148.84,149.1 0.09,82.29 66.84,148.92 149.1,148.84 82.27,-0.07 148.93,-66.81 148.86,-149.1" /><path
         id="path130"
         style="fill:#242d42;fill-opacity:1;fill-rule:nonzero;stroke:none"
         d="m 3569.72,2625.28 c -0.08,-82.28 -66.87,-148.92 -149.12,-148.84 -82.28,0.07 -148.91,66.84 -148.84,149.1 0.09,82.29 66.84,148.92 149.1,148.84 82.27,-0.07 148.93,-66.81 148.86,-149.1" /><path
         id="path132"
         style="fill:#f03b42;fill-opacity:1;fill-rule:nonzero;stroke:none"
         d="m 3532.54,2625.3 c -0.06,-61.74 -50.16,-111.76 -111.91,-111.7 -61.75,0.05 -111.76,50.18 -111.71,111.91 0.05,61.76 50.18,111.77 111.91,111.71 61.76,-0.06 111.78,-50.16 111.71,-111.92" /><path
         id="path134"
         style="fill:#c7313a;fill-opacity:1;fill-rule:nonzero;stroke:none"
         d="m 3509.08,2693.76 c 4.72,-12.39 7.43,-25.79 7.42,-39.85 -0.05,-61.75 -50.17,-111.77 -111.94,-111.7 -35.93,0.03 -67.79,17.08 -88.25,43.45 16.05,-42.05 56.62,-72.02 104.32,-72.06 61.75,-0.06 111.85,49.96 111.91,111.7 0.03,25.81 -8.79,49.54 -23.46,68.46" /><path
         id="path136"
         style="fill:#1b2233;fill-opacity:1;fill-rule:nonzero;stroke:none"
         d="m 3405.84,2648.04 -0.04,-52.6 45.58,26.26 z m -10.72,-77.83 c -1.14,0.17 -2.24,0.55 -3.26,1.13 -2.87,1.67 -4.63,4.73 -4.63,8.04 l 0.06,84.75 0.1,1.38 c 0.42,2.77 2.08,5.23 4.55,6.65 2.88,1.66 6.41,1.65 9.29,-0.01 l 73.36,-42.43 c 2.86,-1.66 4.63,-4.72 4.63,-8.04 l -0.1,-1.38 c -0.42,-2.77 -2.08,-5.23 -4.54,-6.65 l -73.44,-42.31 c -1.84,-1.07 -3.98,-1.45 -6.02,-1.13" /><path
         id="path138"
         style="fill:#1b2233;fill-opacity:1;fill-rule:nonzero;stroke:none"
         d="m 3199.53,2778.81 c -4.45,0.68 -7.87,4.53 -7.87,9.18 l 0.08,91.28 c 0.01,5.13 4.16,9.28 9.3,9.27 5.04,0.01 9.26,-4.16 9.25,-9.28 l -0.08,-91.28 c 0,-5.13 -4.16,-9.28 -9.28,-9.28 l -1.4,0.11" /><path
         id="path140"
         style="fill:#1b2233;fill-opacity:1;fill-rule:nonzero;stroke:none"
         d="m 3153.93,2824.49 c -4.47,0.67 -7.89,4.52 -7.89,9.18 0,5.12 4.17,9.27 9.29,9.27 l 91.31,-0.08 c 5.02,0 9.27,-4.16 9.27,-9.29 0,-5.13 -4.16,-9.28 -9.29,-9.27 l -91.31,0.07 -1.38,0.12" /><path
         id="path142"
         style="fill:#1b2233;fill-opacity:1;fill-rule:nonzero;stroke:none"
         d="m 2983.76,2658.67 c -1.6,0.24 -3.24,0.37 -4.9,0.37 -8.72,0.01 -16.94,-3.38 -23.11,-9.55 -6.18,-6.16 -9.59,-14.37 -9.6,-23.11 -0.01,-8.73 3.38,-16.95 9.55,-23.13 6.18,-6.18 14.33,-9.6 23.13,-9.6 8.72,-0.01 16.93,3.38 23.1,9.55 6.2,6.17 9.6,14.39 9.61,23.12 0.02,16.36 -12.07,29.96 -27.78,32.35 z m -12.72,-83 c -10.74,1.63 -20.66,6.63 -28.47,14.47 -9.68,9.69 -14.99,22.57 -14.97,36.26 0,13.68 5.34,26.55 15.04,36.23 9.68,9.67 22.56,14.99 36.25,14.97 28.18,0 51.24,-23.04 51.22,-51.29 -0.01,-13.7 -5.36,-26.57 -15.06,-36.25 -9.69,-9.67 -22.56,-14.99 -36.25,-14.97 -2.62,0 -5.21,0.2 -7.76,0.58" /><path
         id="path144"
         style="fill:#1b2233;fill-opacity:1;fill-rule:nonzero;stroke:none"
         d="m 3164.24,2441.12 -0.04,-38.1 69.59,-0.05 0.04,38.07 z m -10.72,-56.55 c -1.96,0.29 -3.77,1.21 -5.18,2.62 -1.74,1.75 -2.71,4.1 -2.71,6.57 l 0.05,56.66 c 0.01,5.13 4.16,9.28 9.3,9.28 l 88.15,-0.09 c 5.16,-0.02 9.28,-4.17 9.27,-9.29 l -0.06,-56.66 c 0,-5.12 -4.16,-9.27 -9.28,-9.26 l -88.17,0.07 -1.37,0.1" /><path
         id="path146"
         style="fill:#2f3a51;fill-opacity:1;fill-rule:nonzero;stroke:none"
         d="m 2324.96,2131.67 c -0.11,-118.22 -96.04,-213.96 -214.27,-213.87 -118.22,0.12 -213.97,96.06 -213.86,214.28 0.11,118.23 96.04,213.98 214.26,213.87 118.22,-0.11 213.98,-96.05 213.87,-214.28" /><path
         id="path148"
         style="fill:#242d42;fill-opacity:1;fill-rule:nonzero;stroke:none"
         d="m 2324.96,2131.67 c -0.11,-118.22 -96.04,-213.96 -214.27,-213.87 -118.22,0.12 -213.97,96.06 -213.86,214.28 0.11,118.23 96.04,213.98 214.26,213.87 118.22,-0.11 213.98,-96.05 213.87,-214.28" /><path
         id="path150"
         style="fill:#1b2233;fill-opacity:1;fill-rule:nonzero;stroke:none"
         d="m 2278.79,2131.72 c -0.09,-92.75 -75.33,-167.82 -168.05,-167.76 -92.72,0.1 -167.82,75.34 -167.74,168.08 0.09,92.72 75.33,167.81 168.05,167.73 92.72,-0.09 167.84,-75.32 167.74,-168.05" /><path
         id="path152"
         style="fill:#151925;fill-opacity:1;fill-rule:nonzero;stroke:none"
         d="m 2240.87,2238.14 c 8.22,-19.85 12.8,-41.59 12.77,-64.42 -0.08,-92.72 -75.32,-167.82 -168.04,-167.74 -52.35,0.05 -99.07,24.07 -129.82,61.63 25.22,-60.76 85.05,-103.57 154.96,-103.65 92.72,-0.06 167.96,75.01 168.05,167.76 0.04,40.37 -14.2,77.43 -37.92,106.42" /><path
         id="path154"
         style="fill:#8ed8c6;fill-opacity:1;fill-rule:nonzero;stroke:none"
         d="m 3516.58,3245.81 c -0.3,0 -0.59,0.01 -0.89,0.03 l -1.35,0.15 c -1.62,0.24 -3.17,0.76 -4.56,1.5 -1.79,0.91 -3.41,2.24 -4.71,3.9 -1.11,1.4 -1.97,3 -2.49,4.74 -0.41,1.31 -0.62,2.64 -0.65,3.98 l -4.95,123.76 c -0.06,1.01 -0.02,2.04 0.14,3.04 l 0.19,1.01 c 0.4,1.76 1.11,3.4 2.07,4.86 1.16,1.74 2.62,3.17 4.28,4.23 1.75,1.14 3.77,1.89 5.93,2.19 0.65,0.09 1.3,0.14 1.96,0.14 1.08,0 2.17,-0.13 3.23,-0.38 1.36,-0.3 2.63,-0.79 3.81,-1.42 l 109.67,-57.58 c 1.23,-0.6 2.37,-1.42 3.4,-2.36 1.29,-1.22 2.33,-2.64 3.11,-4.16 0.94,-1.91 1.45,-3.93 1.53,-5.94 0.04,-0.94 -0.01,-1.87 -0.15,-2.79 -0.17,-1.11 -0.48,-2.23 -0.91,-3.29 -0.66,-1.63 -1.62,-3.17 -2.86,-4.5 -0.91,-0.98 -1.96,-1.83 -3.08,-2.5 l -104.73,-66.2 c -1.16,-0.77 -2.43,-1.35 -3.77,-1.78 -1.38,-0.42 -2.81,-0.63 -4.22,-0.63 m 10.61,114.2 2.96,-73.69 62.33,39.42 -65.29,34.27" /><path
         id="path156"
         style="fill:#ffffff;fill-opacity:1;fill-rule:nonzero;stroke:none"
         d="m 1859.05,3464.2 c -4.14,0.63 -8,3.04 -10.33,6.91 l -69.13,114.79 c -4.16,6.92 -1.92,15.9 4.98,20.06 6.93,4.18 15.91,1.93 20.06,-4.98 l 69.13,-114.78 c 4.17,-6.92 1.93,-15.9 -4.97,-20.06 -3.05,-1.83 -6.49,-2.43 -9.74,-1.94" /><path
         id="path158"
         style="fill:#ffffff;fill-opacity:1;fill-rule:nonzero;stroke:none"
         d="m 1767.09,3487.04 c -4.15,0.63 -8,3.03 -10.34,6.91 -4.16,6.91 -1.93,15.89 4.99,20.05 l 114.79,69.13 c 6.93,4.17 15.91,1.94 20.06,-4.98 4.17,-6.91 1.94,-15.89 -4.98,-20.06 l -114.79,-69.13 c -3.05,-1.82 -6.48,-2.42 -9.73,-1.92" /><path
         id="path160"
         style="fill:#91d9ca;fill-opacity:1;fill-rule:nonzero;stroke:none"
         d="m 3919,2562.56 c -0.73,0 -1.45,0.06 -2.15,0.16 -5.56,0.85 -10.38,4.88 -11.94,10.65 l -13.67,50.55 28.23,7.63 13.66,-50.55 c 2.11,-7.8 -2.51,-15.81 -10.29,-17.93 -1.28,-0.34 -2.57,-0.51 -3.84,-0.51 m -35.39,89.58 -13.68,50.56 c -2.1,7.79 2.51,15.82 10.3,17.92 1.28,0.35 2.56,0.51 3.83,0.51 6.44,0 12.33,-4.28 14.1,-10.78 l 13.68,-50.58 -28.23,-7.63" /><path
         id="path162"
         style="fill:#91d9ca;fill-opacity:1;fill-rule:nonzero;stroke:none"
         d="m 3836.9,2609.74 c -0.76,0 -1.5,0.06 -2.23,0.17 -5.56,0.85 -10.36,4.86 -11.94,10.63 -2.1,7.8 2.51,15.82 10.3,17.92 l 50.58,13.68 28.23,7.63 50.55,13.68 c 1.28,0.34 2.56,0.5 3.83,0.5 6.45,0 12.34,-4.27 14.1,-10.78 2.1,-7.8 -2.5,-15.83 -10.28,-17.94 l -50.57,-13.68 -28.23,-7.63 -50.58,-13.68 c -1.25,-0.34 -2.52,-0.5 -3.76,-0.5" /><path
         id="path164"
         style="fill:#ffffff;fill-opacity:1;fill-rule:nonzero;stroke:none"
         d="m 1181.53,2939.69 c -2.57,0.39 -5.21,0.53 -7.85,0.44 -22.58,-0.91 -40.21,-20.02 -39.3,-42.6 0.77,-19.6 15.4,-35.95 34.74,-38.88 2.58,-0.39 5.23,-0.54 7.84,-0.44 10.94,0.44 21.06,5.11 28.48,13.16 7.43,8.04 11.29,18.51 10.85,29.45 -0.79,19.58 -15.41,35.94 -34.76,38.87 z m -16.23,-106.25 c -31.4,4.76 -55.12,31.29 -56.4,63.07 -1.47,36.62 27.14,67.62 63.77,69.1 4.23,0.15 8.51,-0.08 12.68,-0.71 31.42,-4.76 55.14,-31.28 56.41,-63.07 0.71,-17.73 -5.53,-34.7 -17.58,-47.74 -12.05,-13.07 -28.46,-20.64 -46.19,-21.35 -4.25,-0.15 -8.51,0.06 -12.69,0.7" /><path
         id="path166"
         style="fill:#ffffff;fill-opacity:1;fill-rule:nonzero;stroke:none"
         d="m 2798.9,3736.85 -25.16,-47.7 88.6,-46.73 25.15,47.72 z m -53.06,-65.94 c -2.75,1.85 -4.81,4.6 -5.81,7.8 -1.13,3.71 -0.76,7.72 1.04,11.14 l 38.79,73.55 c 3.77,7.15 12.61,9.88 19.76,6.11 l 114.43,-60.33 c 7.07,-3.7 9.89,-12.6 6.12,-19.75 l -38.79,-73.57 c -1.81,-3.43 -4.91,-5.99 -8.62,-7.14 -3.69,-1.15 -7.7,-0.78 -11.13,1.04 l -114.44,60.35 -1.35,0.8" /><path
         id="path168"
         style="fill:#ffffff;fill-opacity:1;fill-rule:nonzero;stroke:none"
         d="m 2939.25,1364.73 c -4.17,-27.48 -29.85,-46.38 -57.32,-42.22 -27.49,4.17 -46.39,29.83 -42.22,57.31 4.17,27.48 29.83,46.39 57.32,42.22 27.47,-4.17 46.39,-29.83 42.22,-57.31" /><path
         id="path170"
         style="fill:#8ed8c6;fill-opacity:1;fill-rule:nonzero;stroke:none"
         d="m 2061.12,3240.85 c -2.27,0 -4.57,0.17 -6.88,0.52 -24.83,3.77 -41.91,26.93 -38.14,51.77 3.41,22.51 22.8,38.64 44.9,38.64 2.26,0 4.56,-0.17 6.87,-0.52 24.83,-3.76 41.91,-26.94 38.15,-51.76 -3.42,-22.52 -22.8,-38.65 -44.9,-38.65" /><path
         id="path172"
         style="fill:#f5bc2c;fill-opacity:1;fill-rule:nonzero;stroke:none"
         d="M 835.215,1674.93 4164.79,1729.07 4033.52,932.359 H 835.215 v 742.571" /><g
         transform="scale(10)"
         id="g174"><g
           id="text180"
           style="font-variant:normal;font-weight:normal;font-size:66.12365723px;font-family:Commando;-inkscape-font-specification:Commando;writing-mode:lr-tb;fill:#2f3a51;fill-opacity:1;fill-rule:nonzero;stroke:none"
           transform="matrix(0.99507781,-0.00377136,-0.09909663,-0.99470895,97.6055,107.944)"
           aria-label="GA
MEzone"><path
             id="path186"
             style=""
             d="M 39.357782,-6.8771186 V -19.824182 H 28.703091 v -5.359633 h 17.11208 v 20.6959301 q -3.777573,2.6798161 -8.330031,4.06815465 -4.552459,1.35605157 -9.71837,1.35605157 -11.30043,0 -17.693244,-6.58653622 -6.3605277,-6.6188231 -6.3605277,-18.4035571 0,-11.817021 6.3605277,-18.403557 6.392814,-6.618823 17.693244,-6.618823 4.713894,0 8.943483,1.16233 4.261876,1.16233 7.845727,3.422416 v 6.941692 q -3.616138,-3.067259 -7.684292,-4.617032 -4.068155,-1.549773 -8.55604,-1.549773 -8.846622,0 -13.30222,4.939902 -4.423311,4.939902 -4.423311,14.722845 0,9.750657 4.423311,14.6905588 4.455598,4.9399021 13.30222,4.9399021 3.454703,0 6.166806,-0.5811649 2.712103,-0.6134519 4.875328,-1.8726426 z" /><path
             id="path188"
             style=""
             d="m 56.786723,-41.779303 -8.846622,23.989198 h 17.725531 z m -3.680711,-6.425101 h 7.393709 L 78.870991,0 H 72.090733 L 67.699709,-12.365899 H 45.970597 L 41.579573,0 h -6.877118 z" /><path
             id="path190"
             style=""
             d="m 76.314794,-48.205048 h 9.71837 l 12.301325,32.803533 12.365901,-32.803533 h 9.71837 V -6.4359914e-4 h -6.36053 V -42.328825 L 101.62776,-9.266996 H 95.073508 L 82.643035,-42.328825 V -6.4359914e-4 h -6.328241 z" /><path
             id="path192"
             style=""
             d="m 129.27859,-48.205048 h 30.47887 v 5.48878 h -23.95691 v 14.270828 h 22.95601 v 5.488781 h -22.95601 v 17.4672353 h 24.53807 v 5.48878010086 h -31.06003 z" /><path
             id="path194"
             style=""
             d="m 162.07759,-36.162019 h 28.21879 v 5.424207 l -22.34256,25.9909879 h 22.34256 V -6.4359914e-4 H 161.27042 V -5.4248499 l 22.34256,-25.9909881 h -21.53539 z" /><path
             id="path196"
             style=""
             d="m 214.11453,-31.997003 q -4.77846,0 -7.55514,3.745285 -2.77668,3.712998 -2.77668,10.202674 0,6.489675 2.74439,10.2349604 2.77668,3.7129984 7.58743,3.7129984 4.74618,0 7.52286,-3.7452853 2.77668,-3.7452855 2.77668,-10.2026735 0,-6.425102 -2.77668,-10.170387 -2.77668,-3.777572 -7.52286,-3.777572 z m 0,-5.036763 q 7.74887,0 12.17218,5.036763 4.42331,5.036763 4.42331,13.947959 0,8.8789089 -4.42331,13.9479588 -4.42331,5.03676292 -12.17218,5.03676292 -7.78115,0 -12.20446,-5.03676292 -4.39102,-5.0690499 -4.39102,-13.9479588 0,-8.911196 4.39102,-13.947959 4.42331,-5.036763 12.20446,-5.036763 z" /><path
             id="path198"
             style=""
             d="M 264.34697,-21.826616 V -6.4359914e-4 h -5.9408 V -21.632895 q 0,-5.133624 -2.00179,-7.684292 -2.00179,-2.550668 -6.00537,-2.550668 -4.81076,0 -7.58744,3.067259 -2.77667,3.06726 -2.77667,8.362318 V -6.4359914e-4 h -5.97309 V -36.162019 h 5.97309 v 5.617928 q 2.13094,-3.260981 5.00447,-4.875328 2.90583,-1.614347 6.6834,-1.614347 6.23138,0 9.42779,3.874433 3.19641,3.842146 3.19641,11.332717 z" /><path
             id="path200"
             style=""
             d="m 300.85899,-19.56653 v 2.905824 h -27.31476 q 0.38745,6.134519 3.68072,9.3632135 3.32555,3.1964073 9.23406,3.1964073 3.42242,0 6.61882,-0.8394605 3.2287,-0.8394605 6.39282,-2.5183815 v 5.6179279 q -3.19641,1.35605157 -6.55425,2.06636429 -3.35784,0.71031273 -6.81255,0.71031273 -8.6529,0 -13.72195,-5.03676292 -5.03676,-5.036763 -5.03676,-13.6250898 0,-8.878909 4.77847,-14.077106 4.81075,-5.230485 12.94706,-5.230485 7.29685,0 11.52644,4.713893 4.26188,4.681607 4.26188,12.753343 z m -5.9408,-1.743495 q -0.0646,-4.875329 -2.74439,-7.781153 -2.64753,-2.905825 -7.03855,-2.905825 -4.97219,0 -7.97488,2.808964 -2.9704,2.808964 -3.42241,7.910301 z" /></g><g
           id="text184"
           style="font-variant:normal;font-weight:bold;font-size:13.86320019px;font-family:Montserrat;-inkscape-font-specification:Montserrat-Bold;writing-mode:lr-tb;fill:#2f3a51;fill-opacity:1;fill-rule:nonzero;stroke:none"
           transform="matrix(0.995456,0,0,-1,146.744,75.0289)"
           aria-label="READY TO PLAY"><path
             id="path203"
             style=""
             d="M 6.7791049,0 5.3650585,-2.6894608 H 5.3096057 3.4796632 V 0 H 0.94269761 V -9.7181033 H 5.3096057 q 1.9269848,0 2.980588,0.901108 1.0674664,0.8872448 1.0674664,2.5092392 0,1.0951928 -0.4436224,1.8992584 -0.4436224,0.7902025 -1.2892776,1.2338249 L 9.6487873,0 Z M 3.4796632,-4.7134881 h 1.8438057 q 0.7763392,0 1.1922352,-0.3881696 0.4297592,-0.3881696 0.4297592,-1.1229192 0,-0.7070232 -0.4297592,-1.0813296 -0.415896,-0.3881696 -1.1922352,-0.3881696 H 3.4796632 Z" /><path
             id="path205"
             style=""
             d="m 18.0635,-9.7181033 h 7.666349 v 2.0240272 h -5.129384 v 1.8160792 h 4.630309 v 2.010164 l -4.630309,0.013863 v 1.8299425 h 5.268016 V 0 H 18.0635 Z" /><path
             id="path207"
             style=""
             d="m 41.43702,0 -0.665433,-1.7190368 h -4.20055 L 35.89174,0 h -2.606282 l 4.172824,-9.7181033 h 2.606281 L 44.140344,0 Z m -4.103507,-3.6598848 h 2.689461 l -1.330867,-3.4658001 z" /><path
             id="path209"
             style=""
             d="m 56.034623,-9.7181033 q 1.524952,0 2.689461,0.6099808 1.178372,0.6099808 1.829942,1.7190368 0.651571,1.0951928 0.651571,2.5231024 0,1.4279097 -0.665434,2.5369657 -0.65157,1.109056 -1.857669,1.71903679 Q 57.490259,0 55.937581,0 h -4.089644 v -9.7181033 z m 0.06932,7.6663497 q 0.73475,0 1.303141,-0.34658 0.568391,-0.34658 0.887245,-0.9842872 0.318853,-0.6377073 0.318853,-1.4556361 0,-0.831792 -0.34658,-1.4694992 -0.332716,-0.6377072 -0.928834,-0.9842872 -0.596118,-0.3604432 -1.358594,-0.3604432 h -1.594268 v 5.6007329 z" /><path
             id="path211"
             style=""
             d="m 78.423419,-9.7181033 -3.50739,6.6127465 V 0 h -2.536966 v -3.0360408 l -3.576705,-6.6820625 h 2.536965 l 2.301291,4.1728232 2.245839,-4.1728232 z" /><path
             id="path213"
             style=""
             d="m 96.126332,-9.7181033 h 8.331778 v 2.0933432 h -2.91127 V 0 h -2.536963 v -7.6247601 h -2.883545 z" /><path
             id="path215"
             style=""
             d="m 116.96311,-9.8705985 q 1.48337,0 2.6756,0.6515704 1.2061,0.6515704 1.8854,1.7883528 0.69316,1.1367824 0.69316,2.5508288 0,1.4279097 -0.69316,2.5785553 -0.6793,1.1506456 -1.8854,1.81607919 -1.19223,0.66543361 -2.6756,0.66543361 -1.48336,0 -2.68946,-0.65157041 -1.19223,-0.66543359 -1.88539,-1.81607919 -0.6793,-1.1645088 -0.6793,-2.5924185 0,-1.4140464 0.6793,-2.5508288 0.69316,-1.1367824 1.88539,-1.7883528 1.2061,-0.6515704 2.68946,-0.6515704 z m 0.0277,2.148796 q -0.72089,0 -1.34473,0.3743064 -0.60998,0.3743064 -0.97043,1.03974 -0.36044,0.6515704 -0.36044,1.4417728 0,0.8040656 0.36044,1.4694993 0.37431,0.6515704 0.98429,1.03974 0.60998,0.3743064 1.33087,0.3743064 0.72089,0 1.317,-0.3743064 0.60998,-0.3881696 0.95656,-1.03974 0.34658,-0.6654337 0.34658,-1.4694993 0,-0.7902024 -0.34658,-1.4417728 -0.34658,-0.6654336 -0.95656,-1.03974 -0.59611,-0.3743064 -1.317,-0.3743064 z" /><path
             id="path217"
             style=""
             d="m 146.08927,-9.7181033 q 1.85767,0 2.88355,0.901108 1.02587,0.8872448 1.02587,2.5092392 0,1.7190368 -1.02587,2.6755977 -1.02588,0.9426976 -2.88355,0.9426976 h -1.7329 V 0 h -2.53696 v -9.7181033 z m -0.12477,5.0046152 q 0.77634,0 1.19224,-0.3881696 0.42976,-0.3881696 0.42976,-1.1229192 0,-0.7070232 -0.42976,-1.0813296 -0.4159,-0.3881696 -1.19224,-0.3881696 h -1.60813 v 2.980588 z" /><path
             id="path219"
             style=""
             d="m 158.75968,-9.7181033 h 2.53697 v 7.5554441 h 4.11737 V 0 h -6.65434 z" /><path
             id="path221"
             style=""
             d="m 181.28754,0 -0.66544,-1.7190368 h -4.20055 L 175.74226,0 h -2.60628 l 4.17282,-9.7181033 h 2.60628 L 183.99086,0 Z m -4.10351,-3.6598848 h 2.68946 l -1.33087,-3.4658001 z" /><path
             id="path223"
             style=""
             d="m 199.71108,-9.7181033 -3.50739,6.6127465 V 0 h -2.53697 v -3.0360408 l -3.5767,-6.6820625 h 2.53696 l 2.30129,4.1728232 2.24584,-4.1728232 z" /></g></g></g></g></svg>